<?xml version="1.0" standalone="no"?><!DOCTYPE svg PUBLIC "-//W3C//DTD SVG 1.1//EN" "http://www.w3.org/Graphics/SVG/1.1/DTD/svg11.dtd"><svg t="1729439015318" class="icon" viewBox="0 0 1024 1024" version="1.1" xmlns="http://www.w3.org/2000/svg" p-id="23379" xmlns:xlink="http://www.w3.org/1999/xlink" width="200" height="200"><path d="M397.82592 64c43.968 0 85.568 19.84 113.408 53.888l80.64 99.008c7.808 9.536-8.192 23.36-39.232 39.04L529.40992 256l-74.88-91.904a73.152 73.152 0 0 0-56.704-26.944H73.15392L73.08992 256H0.00192V137.152C0.00192 96.768 32.76992 64 73.15392 64h324.672z" fill="#333333" p-id="23380"></path><path d="M950.84992 194.048c40.384 0 73.152 32.704 73.152 73.152v601.344c0 40.448-32.768 73.152-73.152 73.152H73.15392A73.152 73.152 0 0 1 0.00192 868.544V267.2c0-40.448 32.768-73.152 73.152-73.152h877.696z m0 73.152H73.15392v601.344h877.696V267.2z" fill="#333333" p-id="23381"></path><path d="M406.40192 671.936a25.6 25.6 0 0 0 25.216 25.984c4.48 0 8.832-1.216 12.544-3.456l177.024-104a26.432 26.432 0 0 0 0-45.184L444.16192 441.28a24.96 24.96 0 0 0-34.496 9.664 26.56 26.56 0 0 0-3.328 12.928v208z" fill="#232323" p-id="23382"></path></svg>