<?xml version="1.0" standalone="no"?><!DOCTYPE svg PUBLIC "-//W3C//DTD SVG 1.1//EN" "http://www.w3.org/Graphics/SVG/1.1/DTD/svg11.dtd"><svg t="1729350112977" class="icon" viewBox="0 0 1024 1024" version="1.1" xmlns="http://www.w3.org/2000/svg" p-id="5251" xmlns:xlink="http://www.w3.org/1999/xlink" width="200" height="200"><path d="M933.027241 50.358921a27.902172 27.902172 0 0 0-19.926822 8.367003h0.004866L671.025355 299.650358l0.836822-136.530901c0.328404-11.326287-8.837715-21.309767-20.178598-20.981363h-14.495994c-11.345748 0.336918-20.839055 6.988923-21.014204 18.48671l-0.660457 203.295423c0 0.166635-0.336918 10.822735-0.336918 10.822735-0.166635 5.659495 1.168875 10.822735 4.840918 14.491128 3.658663 3.658663 8.656485 5.986682 14.500859 5.824913l10.338642-0.170284c0.161769 0 0.328404 0 0.493823-0.166634l201.897882 0.836822c11.336018-0.338134 20.839055-9.664807 21.009338-21.152863v-14.481398c-1.672428-13.488888-12.334609-21.309767-23.680357-20.976498l-133.038872-0.33327L952.949198 98.51267c11.00883-10.984504 11.00883-28.802243 0-39.786746a27.898524 27.898524 0 0 0-19.921957-8.367003zM106.981843 942.75408l242.245348-240.087613-0.841687 135.865579c-0.332053 11.320206 8.847446 21.304902 20.183463 20.981363h15.336465c11.332369-0.336918 20.83419-6.998653 21.000824-18.48671l0.670187-203.460841c0-0.1715 0.332053-10.822735 0.332053-10.822735 0.1715-5.663144-1.168875-10.822735-4.831187-14.486263-3.668394-3.663528-8.671081-5.991548-14.510589-5.829778l-10.328912 0.166635c-0.1715 0-0.333269 0-0.503553 0.171499l-202.734704-0.831956c-11.336018 0.328404-20.84392 9.650211-21.00569 21.147998v14.478965c1.668779 13.491321 12.339474 21.307335 23.680358 20.981363l133.038872 0.334486L67.474848 902.972198c-11.00883 10.989369-11.00883 28.802243 0 39.786747 10.823951 11.165734 28.50303 11.165734 39.506995-0.004865zM615.336559 637.696003l0.498688 203.460842c0.341783 11.327504 9.678186 18.149792 21.014204 18.486709h14.500858c11.336018 0.328404 20.340368-9.658725 20.178599-20.976498l-0.836822-136.540631L912.93865 942.885441c11.013695 10.9991 28.849679 10.9991 39.843913 0 11.003965-10.984504 11.003965-28.802243 0-39.781881l-241.243108-240.097343 133.053468-0.334486c11.327504 0.334486 21.831565-7.656677 23.670627-20.981363v-14.478965c-0.328404-11.327504-9.668455-20.814729-21.009339-21.147998l-201.897882 0.836822c-0.166635 0-0.332053-0.1715-0.503553-0.1715l-10.338642-0.166635c-5.668009-0.166635-10.832465 2.000831-14.505724 5.829779-3.658663 3.663528-4.997822 8.823119-4.827538 14.476532 0 0 0.161769 10.657316 0.161769 10.8276h-0.006082zM308.725254 338.659882l-133.038872 0.328404c-11.337234-0.328404-21.832781 7.662759-23.675492 20.981363v14.486263c0.332053 11.321422 9.668455 20.809864 21.004473 21.147998l202.901339-0.836822c0.165418 0 0.327188 0.1715 0.498687 0.1715l10.328913 0.16177c5.677739 0.165418 10.842196-1.991101 14.510589-5.82613 3.672043-3.662312 5.007552-8.813389 4.831187-14.481398 0 0-0.332053-10.657316-0.332053-10.827599l-0.493822-203.465707c-0.1715-11.317773-9.673321-18.144926-21.006906-18.478196H368.907102c-11.331153-0.332053-20.340368 9.659941-20.168868 20.981364l0.670188 135.865578L107.321194 58.604293c-10.994234-10.994234-28.835083-10.994234-39.839048 0-11.00883 10.989369-11.00883 28.802243 0 39.801342l241.243108 240.254247z" p-id="5252"></path></svg>